<svg width="21" height="21" viewBox="0 0 21 21" fill="none" xmlns="http://www.w3.org/2000/svg">
<path d="M10.5043 5.11758C7.52305 5.11758 5.11836 7.52227 5.11836 10.5035C5.11836 13.4848 7.52305 15.8895 10.5043 15.8895C13.4855 15.8895 15.8902 13.4848 15.8902 10.5035C15.8902 7.52227 13.4855 5.11758 10.5043 5.11758ZM10.5043 14.0051C8.57773 14.0051 7.00273 12.4348 7.00273 10.5035C7.00273 8.57227 8.57305 7.00195 10.5043 7.00195C12.4355 7.00195 14.0059 8.57227 14.0059 10.5035C14.0059 12.4348 12.4309 14.0051 10.5043 14.0051ZM17.3668 4.89727C17.3668 5.5957 16.8043 6.15352 16.1105 6.15352C15.4121 6.15352 14.8543 5.59102 14.8543 4.89727C14.8543 4.20352 15.4168 3.64102 16.1105 3.64102C16.8043 3.64102 17.3668 4.20352 17.3668 4.89727ZM20.934 6.17227C20.8543 4.48945 20.4699 2.99883 19.2371 1.7707C18.009 0.542578 16.5184 0.158203 14.8355 0.0738281C13.1012 -0.0246094 7.90273 -0.0246094 6.16836 0.0738281C4.49023 0.153516 2.99961 0.537891 1.7668 1.76602C0.533984 2.99414 0.154297 4.48477 0.0699219 6.16758C-0.0285156 7.90195 -0.0285156 13.1004 0.0699219 14.8348C0.149609 16.5176 0.533984 18.0082 1.7668 19.2363C2.99961 20.4645 4.48555 20.8488 6.16836 20.9332C7.90273 21.0316 13.1012 21.0316 14.8355 20.9332C16.5184 20.8535 18.009 20.4691 19.2371 19.2363C20.4652 18.0082 20.8496 16.5176 20.934 14.8348C21.0324 13.1004 21.0324 7.90664 20.934 6.17227ZM18.6934 16.6957C18.3277 17.6145 17.6199 18.3223 16.6965 18.6926C15.3137 19.241 12.0324 19.1145 10.5043 19.1145C8.97617 19.1145 5.69023 19.2363 4.31211 18.6926C3.39336 18.327 2.68555 17.6191 2.31523 16.6957C1.7668 15.3129 1.89336 12.0316 1.89336 10.5035C1.89336 8.97539 1.77148 5.68945 2.31523 4.31133C2.68086 3.39258 3.38867 2.68477 4.31211 2.31445C5.69492 1.76602 8.97617 1.89258 10.5043 1.89258C12.0324 1.89258 15.3184 1.7707 16.6965 2.31445C17.6152 2.68008 18.323 3.38789 18.6934 4.31133C19.2418 5.69414 19.1152 8.97539 19.1152 10.5035C19.1152 12.0316 19.2418 15.3176 18.6934 16.6957Z" fill="#A9CEFF"/>
</svg>
